#!OML:ASF F:\VICON\USERDATA\INSTALL\Justin_Nancy\Justin_Nancy.ASF
:FULLY-SPECIFIED
:DEGREES
84
root -5.90997 17.4337 -1.24999 5.22335 28.4841 -0.0508304
lowerback 11.4007 0.0690528 -4.25673
upperback 0.0359526 -0.397637 1.04273
thorax -6.33446 -0.0425506 3.57145
lowerneck -20.6136 -2.43289 -6.77729
upperneck 13.0771 -2.13905 4.43635
head 7.51031 -0.934506 2.30567
rclavicle -5.45404e-014 1.58438e-014
rhumerus -47.5359 6.0463 -84.7887
rradius 110.427
rwrist -6.20265
rhand -12.7432 24.8434
rfingers 7.12502
rthumb 13.3408 -4.70953
lclavicle -5.45404e-014 1.58438e-014
lhumerus -44.9954 -12.8365 89.8971
lradius 98.4393
lwrist 22.4195
lhand -17.8135 8.72968
lfingers 7.12502
lthumb 8.45035 38.5406
rfemur -30.3775 -1.13845 19.1196
rtibia 36.9945
rfoot -4.97585 2.81924
rtoes 1.59277
lfemur -1.40305 -5.98156 -30.2499
ltibia 59.5159
lfoot 20.4489 -11.6185
ltoes 2.50142
85
root -5.78481 17.3416 -0.943718 4.48573 28.8908 -0.952009
lowerback 11.927 0.0145208 -3.4823
upperback 0.074991 -0.369464 1.25771
thorax -6.59424 -0.0437258 3.3619
lowerneck -20.9791 -2.48884 -6.94171
upperneck 13.6986 -2.17184 4.52608
head 7.78309 -0.950435 2.36211
rclavicle -4.23305e-014 -1.19011e-014
rhumerus -46.1362 6.70973 -84.6831
rradius 110.125
rwrist -6.58305
rhand -12.9331 24.9329
rfingers 7.12502
rthumb 13.1576 -4.63197
lclavicle -4.23305e-014 -1.19011e-014
lhumerus -45.056 -11.984 89.3693
lradius 97.3509
lwrist 21.667
lhand -18.0206 9.18727
lfingers 7.12502
lthumb 8.25048 39.0062
rfemur -29.9497 -0.174197 20.2048
rtibia 39.4572
rfoot -7.11542 1.32279
rtoes 0.914853
lfemur -2.80271 -5.82059 -28.5986
ltibia 63.0636
lfoot 20.063 -10.3986
ltoes 3.77637
86
root -5.65606 17.2492 -0.635573 3.71302 29.6953 -1.55925
lowerback 12.3254 -0.0612422 -3.07224
upperback 0.346265 -0.396242 1.60234
thorax -6.52734 -0.0684448 3.50225
lowerneck -21.0534 -2.49878 -7.69271
upperneck 13.8533 -2.05152 5.00874
head 7.85378 -0.885762 2.66369
rclavicle 1.15668e-014 8.79622e-015
rhumerus -44.2604 7.27358 -84.0349
rradius 109.821
rwrist -7.20624
rhand -12.4572 24.7141
rfingers 7.12502
rthumb 13.6164 -4.82059
lclavicle 1.15668e-014 8.79622e-015
lhumerus -44.7439 -11.2222 89.2948
lradius 96.2434
lwrist 21.208
lhand -18.593 9.49398
lfingers 7.12502
lthumb 7.69799 39.3339
rfemur -29.1502 0.507873 20.947
rtibia 41.6082
rfoot -9.35112 -0.312728
rtoes -4.81241
lfemur -4.10013 -5.97963 -27.2221
ltibia 66.6192
lfoot 18.9565 -9.20242
ltoes 2.90371
87
root -5.52081 17.1505 -0.332117 3.05834 30.3573 -1.94948
lowerback 12.5281 0.0495342 -2.98979
upperback 0.570585 -0.210718 2.01754
thorax -6.41699 0.0219345 3.86447
lowerneck -20.4562 -2.51149 -8.03161
upperneck 13.7035 -1.99336 4.89602
head 7.70252 -0.893703 2.68674
rclavicle -7.64327e-014 1.59028e-014
rhumerus -42.7659 7.64317 -83.1518
rradius 109.745
rwrist -7.73905
rhand -12.155 24.5601
rfingers 7.12502
rthumb 13.9076 -4.95482
lclavicle -7.64327e-014 1.59028e-014
lhumerus -44.4787 -10.6119 89.6165
lradius 95.0176
lwrist 20.8649
lhand -18.8306 9.04601
lfingers 7.12502
lthumb 7.46869 38.8942
rfemur -28.1934 1.09779 21.3992
rtibia 43.3206
rfoot -11.2662 -2.22873
rtoes -9.42304
lfemur -5.62366 -5.91221 -26.1676
ltibia 70.1248
lfoot 15.9865 -9.66932
ltoes -4.06229
88
root -5.38374 17.0601 -0.0316092 2.36992 31.0811 -3.03074
lowerback 12.6175 0.128655 -2.0344
upperback 0.584766 0.056009 2.37306
thorax -6.47497 0.131536 3.65187
lowerneck -20.2982 -2.75931 -7.86581
upperneck 14.1075 -2.31953 4.46943
head 7.8262 -1.08859 2.47816
rclavicle 6.19463e-014 1.98785e-014
rhumerus -42.01 7.53929 -82.7674
rradius 110.07
rwrist -7.79825
rhand -12.4274 24.3051
rfingers 7.12502
rthumb 13.6451 -5.22763
lclavicle 6.19463e-014 1.98785e-014
lhumerus -44.32 -10.3354 89.7121
lradius 93.8273
lwrist 20.4132
lhand -18.4691 8.37724
lfingers 7.12502
lthumb 7.81762 38.2127
rfemur -27.3233 1.70054 22.47
rtibia 44.6016
rfoot -12.8757 -3.72741
rtoes -11.1473
lfemur -7.58986 -5.88617 -24.3988
ltibia 73.5636
lfoot 13.1802 -10.2301
ltoes -9.30361
89
root -5.23854 16.9789 0.267063 1.62738 31.9488 -4.50408
lowerback 12.7245 -0.0437884 -0.512019
upperback 0.583455 0.0737585 2.7175
thorax -6.5363 0.102284 3.14959
lowerneck -21.0929 -2.94225 -7.98145
upperneck 14.9367 -2.46776 4.38957
head 8.24993 -1.17409 2.45442
rclavicle -2.71838e-014 -7.7526e-015
rhumerus -40.914 7.7411 -82.5791
rradius 110.136
rwrist -7.80563
rhand -12.5834 24.3515
rfingers 7.12502
rthumb 13.4947 -5.19127
lclavicle -2.71838e-014 -7.7526e-015
lhumerus -44.1212 -9.57949 89.5392
lradius 92.9545
lwrist 20.0056
lhand -17.8401 8.03182
lfingers 7.12502
lthumb 8.42465 37.8438
rfemur -26.3929 2.12882 23.8947
rtibia 45.4063
rfoot -14.1999 -4.7641
rtoes -10.7652
lfemur -9.76387 -5.90618 -22.1965
ltibia 76.8223
lfoot 12.5079 -9.75371
ltoes -7.77604
90
root -5.08712 16.911 0.563614 1.14344 32.7226 -5.75294
lowerback 12.6848 -0.272328 0.797436
upperback 0.540735 -0.0135302 3.04422
thorax -6.55562 0.0271394 2.76881
lowerneck -21.8568 -2.96935 -8.00115
upperneck 15.6344 -2.41199 4.2251
head 8.61201 -1.16666 2.41195
rclavicle 5.00937e-014 5.76476e-015
rhumerus -39.3848 8.38779 -82.3167
rradius 109.923
rwrist -8.08879
rhand -12.8389 24.2531
rfingers 7.12502
rthumb 13.2485 -5.30585
lclavicle 5.00937e-014 5.76476e-015
lhumerus -43.7718 -8.21181 89.4138
lradius 92.0599
lwrist 19.2928
lhand -18.0878 8.47428
lfingers 7.12502
lthumb 8.18561 38.2957
rfemur -25.619 2.32464 25.14
rtibia 45.9597
rfoot -15.6217 -5.70876
rtoes -8.79823
lfemur -12.235 -5.73068 -20.2127
ltibia 79.9163
lfoot 13.9506 -8.68243
ltoes 1.67253
91
root -4.93965 16.8691 0.872016 0.944137 33.7678 -6.7032
lowerback 12.3192 -0.433483 1.5598
upperback 0.485774 -0.0981192 3.43519
thorax -6.40745 -0.0297386 2.76207
lowerneck -21.9685 -2.99448 -8.1574
upperneck 15.6605 -2.37378 4.16008
head 8.63901 -1.16468 2.41987
rclavicle -8.73162e-014 1.94809e-014
rhumerus -37.8335 8.85813 -81.7107
rradius 109.751
rwrist -8.47939
rhand -13.0353 24.1259
rfingers 7.12502
rthumb 13.0592 -5.4453
lclavicle -8.73162e-014 1.94809e-014
lhumerus -42.8181 -6.46586 89.5994
lradius 90.5547
lwrist 18.2352
lhand -18.5035 9.25196
lfingers 7.12502
lthumb 7.78439 39.0887
rfemur -24.7337 2.33026 26.1937
rtibia 46.161
rfoot -17.348 -6.63676
rtoes -5.71989
lfemur -14.9099 -5.61125 -18.4137
ltibia 82.5885
lfoot 12.5408 -9.10172
ltoes 0.865443
92
root -4.7953 16.7817 1.08417 1.34665 32.1994 -7.13171
lowerback 12.5443 0.364541 2.13725
upperback 0.278703 1.06621 3.49687
thorax -6.78742 0.522799 2.29646
lowerneck -21.8313 -3.11492 -8.60905
upperneck 15.2324 -2.44386 4.36623
head 8.483 -1.19858 2.55092
rclavicle 2.80783e-014 -2.34566e-014
rhumerus -36.6782 9.22785 -81.2258
rradius 109.964
rwrist -9.72525
rhand -13.4275 23.4405
rfingers 7.12502
rthumb 12.6811 -6.15452
lclavicle 2.80783e-014 -2.34566e-014
lhumerus -43.2691 -5.72919 89.7659
lradius 90.8668
lwrist 17.9216
lhand -18.2218 9.59563
lfingers 7.12502
lthumb 8.0563 39.4221
rfemur -24.6546 3.42726 26.5611
rtibia 46.3103
rfoot -18.2799 -6.51149
rtoes -6.4636
lfemur -18.3138 -3.06594 -17.67
ltibia 85.3725
lfoot 11.7608 -8.73629
ltoes 1.73563
93
root -4.67307 16.7401 1.40521 0.921672 34.2057 -7.18073
lowerback 12.7833 0.0463351 2.02419
upperback 0.43772 0.639212 3.56592
thorax -6.74331 0.32045 2.51128
lowerneck -22.2042 -3.34634 -8.64323
upperneck 15.1924 -2.71521 4.37723
head 8.55197 -1.32265 2.52078
rclavicle 6.38099e-014 -2.18663e-014
rhumerus -35.8054 9.62674 -81.3157
rradius 110.564
rwrist -12.0609
rhand -14.1979 21.9932
rfingers 7.12502
rthumb 11.9382 -7.64641
lclavicle 6.38099e-014 -2.18663e-014
lhumerus -43.719 -5.27796 89.7294
lradius 91.3814
lwrist 17.9193
lhand -17.6746 9.30869
lfingers 7.12502
lthumb 8.58434 39.1142
rfemur -22.4227 2.13283 27.189
rtibia 45.9715
rfoot -19.434 -8.74142
rtoes -10.622
lfemur -20.2835 -3.9092 -16.776
ltibia 87.2144
lfoot 11.1046 -8.92486
ltoes 4.14009
94
root -4.5108 16.7179 1.67187 1.15795 34.4381 -7.16837
lowerback 12.8386 0.281312 2.3478
upperback 0.402819 0.996007 3.47248
thorax -6.81495 0.482424 2.16333
lowerneck -22.6973 -3.63578 -8.73339
upperneck 15.3304 -3.05551 4.46676
head 8.70939 -1.47448 2.5168
rclavicle -2.94201e-014 -3.06128e-014
rhumerus -34.6764 8.70653 -80.4954
rradius 111.187
rwrist -9.5907
rhand -13.3547 23.8275
rfingers 7.12502
rthumb 12.7512 -5.76315
lclavicle -2.94201e-014 -3.06128e-014
lhumerus -43.8937 -4.73047 89.8493
lradius 91.7193
lwrist 18.011
lhand -17.4511 9.05052
lfingers 7.12502
lthumb 8.80002 38.847
rfemur -21.2861 1.96889 27.2995
rtibia 45.5554
rfoot -20.0379 -9.44653
rtoes -11.8496
lfemur -22.8428 -3.19103 -16.5564
ltibia 88.7765
lfoot 6.51529 -10.1926
ltoes -8.05614
95
root -4.33131 16.7621 1.97156 1.37772 34.9647 -7.06238
lowerback 12.6632 0.386866 2.40892
upperback 0.412051 1.13773 3.48479
thorax -6.70869 0.550589 2.11557
lowerneck -22.9548 -3.77199 -8.85901
upperneck 15.3219 -3.1916 4.54429
head 8.76313 -1.53429 2.54285
rclavicle 7.524e-014 -1.74931e-014
rhumerus -33.6817 8.44811 -79.9277
rradius 111.824
rwrist -8.89563
rhand -12.8742 24.3824
rfingers 7.12502
rthumb 13.2145 -5.17881
lclavicle 7.524e-014 -1.74931e-014
lhumerus -43.8947 -3.95235 90.0516
lradius 92.0597
lwrist 18.2778
lhand -17.087 9.09852
lfingers 7.12502
lthumb 9.15136 38.88
rfemur -19.6499 1.89665 27.2408
rtibia 44.7062
rfoot -20.7338 -9.42092
rtoes -11.2113
lfemur -24.6883 -2.74937 -16.4247
ltibia 89.4615
lfoot 9.09422 -8.45938
ltoes 5.0103
96
root -4.16997 16.7632 2.26174 1.61158 35.3046 -6.94689
lowerback 12.4281 0.616678 2.2198
upperback 0.435253 1.40846 3.54601
thorax -6.56353 0.690792 2.23888
lowerneck -22.9938 -3.92215 -8.91625
upperneck 15.1142 -3.382 4.60419
head 8.71386 -1.61733 2.5436
rclavicle 6.20208e-014 1.03368e-014
rhumerus -32.8166 8.16326 -79.4542
rradius 112.489
rwrist -8.74279
rhand -12.6618 24.9508
rfingers 7.12502
rthumb 13.4192 -4.59699
lclavicle 6.20208e-014 1.03368e-014
lhumerus -44.2227 -3.68003 90.2998
lradius 92.821
lwrist 19.0691
lhand -17.1113 9.31392
lfingers 7.12502
lthumb 9.12798 39.0964
rfemur -18.0486 2.07847 27.2387
rtibia 43.9275
rfoot -21.0756 -9.69065
rtoes -11.7919
lfemur -26.7083 -2.11531 -16.2675
ltibia 90.1423
lfoot 8.07744 -8.5122
ltoes 5.40477
97
root -4.01427 16.7709 2.541 1.80652 35.4373 -7.15287
lowerback 12.2657 0.947854 2.34808
upperback 0.334273 1.86547 3.5738
thorax -6.5879 0.910681 2.11588
lowerneck -22.9483 -4.1733 -8.91008
upperneck 14.9406 -3.75067 4.71724
head 8.6751 -1.77598 2.52764
rclavicle -6.04305e-014 -2.62396e-014
rhumerus -32.2028 7.52635 -79.1831
rradius 113.169
rwrist -8.85361
rhand -12.6427 25.2491
rfingers 7.12502
rthumb 13.4376 -4.29751
lclavicle -6.04305e-014 -2.62396e-014
lhumerus -45.1844 -3.95472 90.5502
lradius 94.1043
lwrist 19.8782
lhand -17.0131 9.54855
lfingers 7.12502
lthumb 9.2227 39.3269
rfemur -16.564 2.37317 27.5904
rtibia 43.0058
rfoot -20.787 -10.9115
rtoes -17.7192
lfemur -29.0254 -1.21616 -15.9149
ltibia 90.5702
lfoot 7.21527 -8.85978
ltoes 4.0904
